# Blender 3.1.0
# www.blender.org
mtllib tafel.mtl
o Cube
v -2.003253 1.102858 0.087331
v -2.003253 3.861705 0.087331
v -2.003253 1.102858 -0.087331
v -2.003253 3.861705 -0.087331
v 2.003253 1.102858 0.087331
v 2.003253 3.861705 0.087331
v 2.003253 1.102858 -0.087331
v 2.003253 3.861705 -0.087331
vn -1.0000 -0.0000 -0.0000
vn -0.0000 -0.0000 -1.0000
vn 1.0000 -0.0000 -0.0000
vn -0.0000 -0.0000 1.0000
vn -0.0000 -1.0000 -0.0000
vn -0.0000 1.0000 -0.0000
vt 0.375000 0.000000
vt 0.375000 1.000000
vt 0.125000 0.750000
vt 0.625000 0.000000
vt 0.625000 1.000000
vt 0.875000 0.750000
vt 0.375000 0.250000
vt 0.125000 0.500000
vt 0.625000 0.250000
vt 0.875000 0.500000
vt 0.375000 0.750000
vt 0.625000 0.750000
vt 0.375000 0.500000
vt 0.625000 0.500000
s 0
usemtl screen
f 1/1/1 2/4/1 4/9/1 3/7/1
f 3/7/2 4/9/2 8/14/2 7/13/2
f 7/13/3 8/14/3 6/12/3 5/11/3
f 5/11/4 6/12/4 2/5/4 1/2/4
f 3/8/5 7/13/5 5/11/5 1/3/5
f 8/14/6 4/10/6 2/6/6 6/12/6
o Cube.001
v 2.024717 3.997070 -0.113062
v 2.024717 -0.046680 -0.113062
v -2.003548 -0.046680 -0.113062
v -2.003548 3.997070 -0.113062
v -1.923601 -0.046680 -0.079947
v -1.923601 3.997070 -0.079947
v -1.890485 -0.046680 0.000000
v -1.890485 3.997070 0.000000
v -1.923601 -0.046680 0.079947
v -1.923601 3.997070 0.079947
v -2.003548 -0.046680 0.113062
v -2.003548 3.997070 0.113062
v -2.083495 -0.046680 0.079947
v -2.083495 3.997070 0.079947
v -2.116610 -0.046680 0.000000
v -2.116610 3.997070 0.000000
v -2.083495 -0.046680 -0.079947
v -2.083495 3.997070 -0.079947
v 2.104664 -0.046680 -0.079947
v 2.104664 3.997070 -0.079947
v 2.137780 -0.046680 0.000000
v 2.137780 3.997070 0.000000
v 2.104664 -0.046680 0.079947
v 2.104664 3.997070 0.079947
v 2.024717 -0.046680 0.113062
v 2.024717 3.997070 0.113062
v 1.944770 -0.046680 0.079947
v 1.944770 3.997070 0.079947
v 1.911655 -0.046680 0.000000
v 1.911655 3.997070 0.000000
v 1.944770 -0.046680 -0.079947
v 1.944770 3.997070 -0.079947
v 2.173356 3.818080 -0.113062
v -2.168818 3.818080 -0.113061
v -2.168818 3.738133 -0.079946
v 2.173356 3.738133 -0.079947
v -2.168818 3.705018 0.000001
v 2.173356 3.705018 0.000000
v -2.168818 3.738133 0.079948
v 2.173356 3.738133 0.079947
v -2.168818 3.818080 0.113063
v 2.173356 3.818080 0.113062
v -2.168818 3.898027 0.079948
v 2.173356 3.898027 0.079947
v -2.168818 3.931143 0.000001
v 2.173356 3.931143 0.000000
v -2.168818 3.898027 -0.079946
v 2.173356 3.898027 -0.079947
v 2.173356 1.134083 -0.113062
v -2.168818 1.134083 -0.113061
v -2.168818 1.054136 -0.079946
v 2.173356 1.054136 -0.079947
v -2.168818 1.021021 0.000001
v 2.173356 1.021021 0.000000
v -2.168818 1.054136 0.079948
v 2.173356 1.054136 0.079947
v -2.168818 1.134083 0.113063
v 2.173356 1.134083 0.113062
v -2.168818 1.214030 0.079948
v 2.173356 1.214030 0.079947
v -2.168818 1.247146 0.000001
v 2.173356 1.247146 0.000000
v -2.168818 1.214030 -0.079946
v 2.173356 1.214030 -0.079947
vn -0.0000 -0.7071 0.7071
vn -0.0000 -0.0000 1.0000
vn -0.0000 1.0000 -0.0000
vn -0.0000 -0.0000 -1.0000
vn 0.7071 -0.0000 -0.7071
vn -1.0000 -0.0000 -0.0000
vn -0.7071 -0.0000 0.7071
vn 1.0000 -0.0000 -0.0000
vn -0.0000 0.7071 0.7071
vn 0.7071 -0.0000 0.7071
vn -0.0000 -1.0000 -0.0000
vn -0.7071 -0.0000 -0.7071
vn -0.0000 0.7071 -0.7071
vn -0.0000 -0.7071 -0.7071
vt 0.250000 0.490000
vt 0.000000 1.000000
vt 1.000000 1.000000
vt 0.750000 0.490000
vt 0.000000 0.500000
vt 1.000000 0.500000
vt 1.000000 0.500000
vt 0.000000 0.500000
vt 0.750000 0.490000
vt 1.000000 1.000000
vt 0.250000 0.490000
vt 0.000000 1.000000
vt 0.875000 0.500000
vt 0.919706 0.419706
vt 0.875000 1.000000
vt 0.419706 0.419706
vt 0.750000 0.500000
vt 0.990000 0.250000
vt 0.750000 1.000000
vt 0.490000 0.250000
vt 0.625000 0.500000
vt 0.919706 0.080294
vt 0.625000 1.000000
vt 0.419706 0.080294
vt 0.500000 0.500000
vt 0.750000 0.010000
vt 0.500000 1.000000
vt 0.250000 0.010000
vt 0.375000 0.500000
vt 0.580294 0.080294
vt 0.375000 1.000000
vt 0.080294 0.080294
vt 0.250000 0.500000
vt 0.510000 0.250000
vt 0.010000 0.250000
vt 0.250000 1.000000
vt 0.125000 0.500000
vt 0.580294 0.419706
vt 0.080294 0.419706
vt 0.125000 1.000000
vt 0.919706 0.419706
vt 0.875000 0.500000
vt 0.419706 0.419706
vt 0.875000 1.000000
vt 0.990000 0.250000
vt 0.750000 0.500000
vt 0.490000 0.250000
vt 0.750000 1.000000
vt 0.919706 0.080294
vt 0.625000 0.500000
vt 0.419706 0.080294
vt 0.625000 1.000000
vt 0.500000 0.500000
vt 0.750000 0.010000
vt 0.250000 0.010000
vt 0.500000 1.000000
vt 0.375000 0.500000
vt 0.580294 0.080294
vt 0.080294 0.080294
vt 0.375000 1.000000
vt 0.510000 0.250000
vt 0.250000 0.500000
vt 0.010000 0.250000
vt 0.250000 1.000000
vt 0.580294 0.419706
vt 0.125000 0.500000
vt 0.080294 0.419706
vt 0.125000 1.000000
vt 0.250000 0.490000
vt 0.000000 1.000000
vt 1.000000 1.000000
vt 0.750000 0.490000
vt 0.000000 0.500000
vt 1.000000 0.500000
vt 0.919706 0.419706
vt 0.875000 0.500000
vt 0.419706 0.419706
vt 0.875000 1.000000
vt 0.990000 0.250000
vt 0.750000 0.500000
vt 0.490000 0.250000
vt 0.750000 1.000000
vt 0.919706 0.080294
vt 0.625000 0.500000
vt 0.419706 0.080294
vt 0.625000 1.000000
vt 0.750000 0.010000
vt 0.500000 0.500000
vt 0.250000 0.010000
vt 0.500000 1.000000
vt 0.580294 0.080294
vt 0.375000 0.500000
vt 0.080294 0.080294
vt 0.375000 1.000000
vt 0.510000 0.250000
vt 0.250000 0.500000
vt 0.010000 0.250000
vt 0.250000 1.000000
vt 0.580294 0.419706
vt 0.125000 0.500000
vt 0.080294 0.419706
vt 0.125000 1.000000
vt 0.250000 0.490000
vt 0.000000 1.000000
vt 1.000000 1.000000
vt 0.750000 0.490000
vt 0.000000 0.500000
vt 1.000000 0.500000
vt 0.919706 0.419706
vt 0.875000 0.500000
vt 0.419706 0.419706
vt 0.875000 1.000000
vt 0.990000 0.250000
vt 0.750000 0.500000
vt 0.490000 0.250000
vt 0.750000 1.000000
vt 0.919706 0.080294
vt 0.625000 0.500000
vt 0.419706 0.080294
vt 0.625000 1.000000
vt 0.750000 0.010000
vt 0.500000 0.500000
vt 0.250000 0.010000
vt 0.500000 1.000000
vt 0.580294 0.080294
vt 0.375000 0.500000
vt 0.080294 0.080294
vt 0.375000 1.000000
vt 0.510000 0.250000
vt 0.250000 0.500000
vt 0.010000 0.250000
vt 0.250000 1.000000
vt 0.580294 0.419706
vt 0.125000 0.500000
vt 0.080294 0.419706
vt 0.125000 1.000000
s 1
usemtl wood
f 47/98/7 48/100/7 50/104/8 49/102/8
f 28/57/9 9/15/9 40/81/9 38/77/9 36/73/9 34/69/9 32/65/9 30/61/9
f 11/21/10 12/24/10 14/29/11 13/27/11
f 42/86/12 43/89/12 45/93/12 47/97/12 49/101/12 51/105/12 53/109/12 55/113/12
f 35/71/13 36/74/13 38/78/12 37/76/12
f 13/27/11 14/29/11 16/33/14 15/31/14
f 51/106/15 52/108/15 54/112/9 53/110/9
f 33/67/8 34/70/8 36/74/13 35/71/13
f 15/31/14 16/33/14 18/37/16 17/35/16
f 44/91/14 41/83/14 56/115/14 54/111/14 52/107/14 50/103/14 48/99/14 46/95/14
f 31/64/16 32/66/16 34/70/8 33/67/8
f 17/35/16 18/37/16 20/41/8 19/39/8
f 10/18/17 27/55/17 29/59/17 31/63/17 33/68/17 35/72/17 37/75/17 39/79/17
f 29/60/14 30/62/14 32/66/16 31/64/16
f 19/39/8 20/41/8 22/45/13 21/43/13
f 39/80/18 40/82/18 9/16/10 10/19/10
f 27/56/11 28/58/11 30/62/14 29/60/14
f 21/43/13 22/45/13 24/50/12 23/47/12
f 14/30/9 12/25/9 26/53/9 24/49/9 22/46/9 20/42/9 18/38/9 16/34/9
f 10/20/10 9/17/10 28/58/11 27/56/11
f 23/47/12 24/50/12 26/54/18 25/51/18
f 49/102/8 50/104/8 52/108/15 51/106/15
f 37/76/12 38/78/12 40/82/18 39/80/18
f 25/51/18 26/54/18 12/26/10 11/22/10
f 11/23/17 13/28/17 15/32/17 17/36/17 19/40/17 21/44/17 23/48/17 25/52/17
f 45/94/17 46/96/17 48/100/7 47/98/7
f 55/114/19 56/116/19 41/84/10 42/87/10
f 43/90/20 44/92/20 46/96/17 45/94/17
f 42/88/10 41/85/10 44/92/20 43/90/20
f 53/110/9 54/112/9 56/116/19 55/114/19
f 63/132/7 64/134/7 66/138/8 65/136/8
f 58/120/12 59/123/12 61/127/12 63/131/12 65/135/12 67/139/12 69/143/12 71/147/12
f 67/140/15 68/142/15 70/146/9 69/144/9
f 60/125/14 57/117/14 72/149/14 70/145/14 68/141/14 66/137/14 64/133/14 62/129/14
f 65/136/8 66/138/8 68/142/15 67/140/15
f 61/128/17 62/130/17 64/134/7 63/132/7
f 71/148/19 72/150/19 57/118/10 58/121/10
f 59/124/20 60/126/20 62/130/17 61/128/17
f 58/122/10 57/119/10 60/126/20 59/124/20
f 69/144/9 70/146/9 72/150/19 71/148/19
